<?xml version="1.0" encoding="UTF-8" standalone="no"?>
<svg
   xmlns:dc="http://purl.org/dc/elements/1.1/"
   xmlns:cc="http://creativecommons.org/ns#"
   xmlns:rdf="http://www.w3.org/1999/02/22-rdf-syntax-ns#"
   xmlns:svg="http://www.w3.org/2000/svg"
   xmlns="http://www.w3.org/2000/svg"
   xmlns:sodipodi="http://sodipodi.sourceforge.net/DTD/sodipodi-0.dtd"
   xmlns:inkscape="http://www.inkscape.org/namespaces/inkscape"
   version="1.1"
   viewBox="0 0 948.99915 160"
   stroke-miterlimit="10"
   id="svg26"
   sodipodi:docname="TitanDistance.com Logo.svg"
   width="948.99915"
   height="160"
   style="fill:none;stroke:none;stroke-linecap:square;stroke-miterlimit:10"
   inkscape:version="0.92.4 (5da689c313, 2019-01-14)"
   inkscape:export-filename="D:\Google Drive\Titan Distance\Logos\New Logo\TitanDistance.com Logo.png"
   inkscape:export-xdpi="309.44125"
   inkscape:export-ydpi="309.44125">
  <metadata
     id="metadata32">
    <rdf:RDF>
      <cc:Work
         rdf:about="">
        <dc:format>image/svg+xml</dc:format>
        <dc:type
           rdf:resource="http://purl.org/dc/dcmitype/StillImage" />
        <dc:title></dc:title>
      </cc:Work>
    </rdf:RDF>
  </metadata>
  <defs
     id="defs30" />
  <sodipodi:namedview
     pagecolor="#ffffff"
     bordercolor="#666666"
     borderopacity="1"
     objecttolerance="10"
     gridtolerance="10"
     guidetolerance="10"
     inkscape:pageopacity="0"
     inkscape:pageshadow="2"
     inkscape:window-width="640"
     inkscape:window-height="480"
     id="namedview28"
     showgrid="false"
     inkscape:zoom="3.3458333"
     inkscape:cx="760.76135"
     inkscape:cy="85.843511"
     inkscape:current-layer="svg26" />
  <clipPath
     id="p.0">
    <path
       d="M 0,0 H 960 V 720 H 0 Z"
       id="path2"
       inkscape:connector-curvature="0"
       style="clip-rule:nonzero" />
  </clipPath>
  <path
     style="fill:#073763;fill-rule:nonzero"
     inkscape:connector-curvature="0"
     id="path9"
     d="M 3.578125,37.92688 19.84375,38.8175 h 18.5625 l 16.25,-0.89062 0.640625,-3.70313 h 2.437504 l 0.5,18.17188 H 55.8125 l -1.15625,-5 -19.203125,-0.64063 -1.15625,17.03125 v 26.875 l 1.546875,21.89063 5.75,0.89062 -0.125,2.4375 H 17.015625 l -0.125,-2.4375 5.765625,-0.89062 1.53125,-22.01563 v -26.875 L 22.90625,46.755 3.578125,47.39563 l -1.140625,5 H 0 L 0.515625,34.22375 H 2.9375 Z m 66.81688,74.625 1.546875,-22.01563 v -26.875 l -1.546875,-21.89062 -3.828125,-0.90625 0.125,-2.42188 h 20.609375 l 0.125,2.42188 -3.84375,0.90625 -1.53125,22.01562 v 26.875 l 1.53125,21.89063 3.84375,0.89062 -0.125,2.4375 H 66.69188 l -0.125,-2.4375 z m 28.927121,-74.625 16.265634,0.89062 h 18.5625 l 16.25,-0.89062 0.64062,-3.70313 h 2.4375 l 0.5,18.17188 h -2.42187 l -1.15625,-5 -19.20313,-0.64063 -1.15625,17.03125 v 26.875 l 1.54688,21.89063 5.75,0.89062 -0.125,2.4375 h -24.45313 l -0.125,-2.4375 5.76563,-0.89062 1.53125,-22.01563 v -26.875 l -1.28125,-16.90625 -19.328134,0.64063 -1.14062,5 h -2.4375 l 0.51562,-18.17188 h 2.42188 z m 108.160634,58.625 -2.42187,-6.78125 h -29.1875 l -2.5625,6.78125 -3.84375,16 5.51562,0.64062 -0.14062,2.6875 h -21.375 l -0.125,-2.4375 3.84375,-0.89062 28.92187,-70.78125 -4.85937,-0.90625 0.125,-2.42188 h 21 l 0.125,2.42188 -4.85938,0.90625 26.75,70.78125 3.82813,0.89062 -0.125,2.4375 h -22.78125 l -0.125,-2.6875 5.5,-0.64062 z m -16.375,-45.5625 -11.90625,30.20312 h 22.78125 z m 47.35126,61.5625 1.54687,-22.01563 v -26.875 l -1.67187,-21.89062 -3.70313,-0.90625 0.125,-2.42188 h 21.25 l 0.125,2.6875 -5.64062,0.64063 h -0.125 L 290.69339,97.1925 V 63.66125 l -1.67187,-21.89062 -5.125,-0.64063 0.14062,-2.6875 h 21.10938 l 0.14062,2.42188 -3.84375,0.90625 -1.54687,22.01562 v 23.42188 l 1.54687,25.34375 3.84375,0.89062 -0.14062,2.4375 h -20.73438 l -0.125,-2.6875 5.76563,-0.64062 -40.84375,-55.9375 v 34.04687 l 1.54687,21.89063 5.10938,0.64062 -0.125,2.6875 h -20.98438 l -0.125,-2.4375 z" />
  <path
     style="fill:#073763;fill-rule:nonzero"
     inkscape:connector-curvature="0"
     id="path22"
     d="m 426.87501,112.42688 1.54687,-21.89063 v -26.75 l -1.54687,-21.89062 -3.82813,-0.89063 0.125,-2.4375 q 15.60938,-0.51562 30.07813,-0.51562 19.0625,0 28.28125,9.09375 9.21875,9.09375 9.21875,28.79687 0,40.32813 -38.90625,40.32813 l -28.67188,-0.51563 -0.125,-2.4375 z m 11.65625,-21.76563 1.01562,15.35938 q 6.40625,2.04687 14.46875,2.04687 25.09375,0 25.09375,-30.07812 0,-16.375 -6.65625,-24.3125 -6.65625,-7.9375 -20.48437,-7.9375 -6.01563,0 -12.29688,2.04687 l -1.14062,16.125 z m 70.13577,21.89063 1.54687,-22.01563 v -26.875 l -1.54687,-21.89062 -3.82813,-0.90625 0.125,-2.42188 h 20.60938 l 0.125,2.42188 -3.84375,0.90625 -1.53125,22.01562 v 26.875 l 1.53125,21.89063 3.84375,0.89062 -0.125,2.4375 H 504.9639 l -0.125,-2.4375 z m 39.05212,-14.84375 -0.64062,5.89062 q 9.98437,5.75 17.78125,5.75 7.8125,0 12.28125,-3.1875 4.48437,-3.20312 4.48437,-8.39062 0,-5.1875 -2.9375,-8.82813 -2.9375,-3.65625 -7.42187,-5.57812 -4.48438,-1.92188 -9.67188,-4.28125 -5.17187,-2.375 -9.65625,-4.60938 -4.48437,-2.23437 -7.4375,-6.59375 -2.9375,-4.35937 -2.9375,-10.375 0,-9.34375 7.75,-15.15625 7.75,-5.82812 20.03125,-5.82812 7.54688,0 15.48438,2.4375 L 585.73478,35.63 h 2.42187 l -1.01562,21.625 h -2.4375 l -0.89063,-5.5 q -10.89062,-7.17187 -19.07812,-7.17187 -5.625,0 -8.70313,2.5 -3.07812,2.5 -3.07812,7.5 0,4.98437 3.96875,8.5625 3.96875,3.57812 9.65625,5.76562 5.70312,2.17188 11.39062,4.67188 5.70313,2.48437 9.67188,7.42187 3.96875,4.92188 3.96875,12.34375 0,11.26563 -8.32813,17.85938 -8.3125,6.59375 -22.26562,6.59375 -8.1875,0 -18.42188,-2.95313 l -1.79687,2.82813 -2.29688,-0.76563 6.90625,-19.84375 z m 53.875,-59.78125 16.26563,0.89062 h 18.5625 l 16.25,-0.89062 0.64062,-3.70313 h 2.4375 l 0.5,18.17188 h -2.42187 l -1.15625,-5 -19.20313,-0.64063 -1.15625,17.03125 v 26.875 l 1.54688,21.89063 5.75,0.89062 -0.125,2.4375 h -24.45313 l -0.125,-2.4375 5.76563,-0.89062 1.53125,-22.01563 v -26.875 l -1.28125,-16.90625 -19.32813,0.64063 -1.14062,5 h -2.4375 l 0.51562,-18.17188 h 2.42188 z m 108.16058,58.625 -2.42187,-6.78125 h -29.1875 l -2.5625,6.78125 -3.84375,16 5.51562,0.64062 -0.14062,2.6875 h -21.37494 l -0.125,-2.4375 3.84375,-0.89062 28.92181,-70.78125 -4.85937,-0.90625 0.125,-2.42188 h 21 l 0.125,2.42188 -4.85938,0.90625 26.75,70.78125 3.82813,0.89062 -0.125,2.4375 h -22.78125 l -0.125,-2.6875 5.5,-0.64062 z m -16.375,-45.5625 -11.90625,30.20312 h 22.78125 z m 47.35126,61.5625 1.54688,-22.01563 v -26.875 l -1.67188,-21.89062 -3.70312,-0.90625 0.125,-2.42188 h 21.25 l 0.125,2.6875 -5.64063,0.64063 h -0.125 L 792.96537,97.1925 V 63.66125 l -1.67188,-21.89062 -5.125,-0.64063 0.14063,-2.6875 h 21.10937 l 0.14063,2.42188 -3.84375,0.90625 -1.54688,22.01562 v 23.42188 l 1.54688,25.34375 3.84375,0.89062 -0.14063,2.4375 h -20.73437 l -0.125,-2.6875 5.76562,-0.64062 -40.84375,-55.9375 v 34.04687 l 1.54688,21.89063 5.10937,0.64062 -0.125,2.6875 h -20.98437 l -0.125,-2.4375 z M 855.68454,44.97375 q -10.5,0 -16.14062,8.25 -5.625,8.25 -5.625,23.54688 0,15.29687 5.95312,23.9375 5.95313,8.64062 16.125,8.64062 10.17188,0 21.70313,-6.65625 l 2.17187,-5.10937 2.29688,0.5 -4.46875,20.35937 h -2.5625 l 0.125,-3.20312 q -8.57813,2.5625 -19.20313,2.5625 -16.25,0 -25.34375,-10.35938 -9.07812,-10.375 -9.07812,-29.375 0,-19.01562 9.84375,-30.28125 9.85937,-11.26562 26.76562,-11.26562 8.4375,0 17.90625,3.20312 l 0.90625,-3.20312 h 2.42188 l -0.89063,19.71875 h -2.4375 l -0.89062,-5.39063 q -11.26563,-5.875 -19.57813,-5.875 z m 87.92395,3.45313 -13.6875,-1.28125 h -18.95306 l -1.14063,16.64062 v 5.89063 h 24.57807 l 1.01562,-3.71875 h 2.4375 l -0.76562,17.53125 h -2.4375 L 934.01474,78.38 H 909.8273 v 12.28125 l 1.14063,16.51563 h 18.95306 l 14.71875,-1.40625 2.17188,-5.125 2.1875,0.51562 -3.96875,18.17188 -2.3125,-0.125 0.125,-3.32813 h -48.37494 l -0.125,-2.4375 3.82812,-0.89062 1.54688,-22.01563 v -26.875 l -1.54688,-21.89062 -3.82812,-0.90625 0.125,-2.42188 h 49.53119 l 1.03125,-3.71875 h 2.42187 l -0.76562,18.8125 h -2.4375 z" />
  <path
     style="fill:#feb120;fill-opacity:1;stroke:none;stroke-width:1px;stroke-linecap:butt;stroke-linejoin:miter;stroke-opacity:1"
     d="m 394.22167,2.4906592 -84.88169,84.8816938 53.49937,1.195517 -46.32627,69.0411 101.32005,-92.652557 -54.6949,-0.597759 z"
     id="path822"
     inkscape:connector-curvature="0" />
  <path
     style="fill:#073763;fill-rule:nonzero;stroke:none;stroke-linecap:square;stroke-miterlimit:10"
     inkscape:connector-curvature="0"
     id="path26"
     d="m 846.89266,141.0526 q -0.51562,1.57812 -2.28125,2.25 -1.59375,-0.48438 -2.23437,-2.25 0.64062,-1.75 2.23437,-2.26563 1.79688,0.70313 2.28125,2.26563 z m 8.31451,2.21875 q -2.78125,0 -4.4375,-1.875 -1.64062,-1.875 -1.64062,-4.98438 0,-3.125 1.92187,-5 1.92188,-1.875 5.10938,-1.875 1.39062,0 2.95312,0.32813 l 0.25,-0.70313 h 0.51563 l -0.21875,4.40625 h -0.54688 l -0.0937,-1.21875 q -1.79687,-0.98437 -3.39062,-0.98437 -1.57813,0 -2.67188,1.39062 -1.07812,1.39063 -1.07812,3.65625 0,2.25 1,3.65625 1.01562,1.40625 2.79687,1.40625 1.79688,0 3.5,-1.21875 l 0.54688,-1.28125 0.57812,0.125 -1,4.51563 h -0.64062 l 0.0312,-0.82813 q -1.6875,0.48438 -3.48438,0.48438 z m 13.9549,-1.79688 q 3.39062,0 3.39062,-4.70312 0,-5.4375 -3.9375,-5.4375 -1.76562,0 -2.54687,1.10937 -0.78125,1.09375 -0.78125,3.75 0,5.28125 3.875,5.28125 z m -0.32813,1.79688 q -2.96875,0 -4.64062,-1.75 -1.65625,-1.75 -1.65625,-4.92188 0,-3.1875 1.75,-5.125 1.76562,-1.9375 4.75,-1.9375 3,0 4.64062,1.71875 1.65625,1.70313 1.65625,4.92188 0,3.21875 -1.76562,5.15625 -1.75,1.9375 -4.73438,1.9375 z m 30.62568,-0.48438 h -5.28125 l -0.0312,-0.67187 1.375,-0.15625 0.29687,-4.82813 v -2.85937 q 0,-1.21875 -0.65625,-1.875 -0.65625,-0.65625 -2.14062,-0.65625 -1.46875,0 -2.9375,1.15625 v 4.23437 l 0.26562,4.82813 h 0.0312 l 1.375,0.15625 -0.0312,0.67187 h -5.73437 l -0.0312,-0.67187 1.375,-0.15625 0.29687,-4.82813 v -2.85937 q 0,-1.21875 -0.65625,-1.875 -0.65625,-0.65625 -2.07812,-0.65625 -1.40625,0 -2.84375,1.15625 l -0.15625,2.8125 v 1.42187 l 0.25,4.82813 h 0.0312 l 1.375,0.15625 -0.0312,0.67187 h -5.3125 l -0.0312,-0.60937 0.96875,-0.21875 0.28125,-4.82813 v -1.42187 l -0.28125,-4.82813 -1.09375,-0.21875 0.0312,-0.60937 4.125,-0.35938 -0.0937,1.48438 q 2.10937,-1.64063 4.1875,-1.64063 2.09375,0 3.17187,1.82813 2.53125,-1.82813 4.9375,-1.82813 1.78125,0 2.8125,1.23438 1.04688,1.23437 1.04688,3.375 v 2.98437 l 0.26562,4.82813 h 0.0312 l 0.92188,0.21875 z" />
</svg>
