<?xml version="1.0" encoding="utf-8"?>
<!DOCTYPE svg PUBLIC "-//W3C//DTD SVG 20010904//EN" "http://www.w3.org/TR/2001/REC-SVG-20010904/DTD/svg10.dtd">
<svg version="1.0" xmlns="http://www.w3.org/2000/svg" width="710px" height="1000px" viewBox="0 0 710 1000" preserveAspectRatio="xMidYMid meet">
 <g fill="#ffffff">
  <path d="M99.4 931.8 c-37.9 -37.5 -75.5 -74.7 -83.6 -82.7 l-14.8 -14.5 0 -99.3 0 -99.3 74.1 0 c43.1 0 73.9 -0.4 73.7 -0.9 -0.1 -0.5 -31.6 -28.9 -69.8 -63.1 -38.2 -34.3 -71.4 -64 -73.8 -66.2 l-4.2 -3.8 0 -173.8 0 -173.7 79.6 -72.5 c43.7 -39.9 81.6 -74.4 84.3 -76.7 l4.7 -4.1 236.7 -0.4 c130.2 -0.1 236.7 -0.3 236.7 -0.2 0 0.1 -7 14.7 -15.5 32.4 -8.6 17.8 -15.5 32.9 -15.3 33.5 0.3 1 79.1 69.7 92.4 80.5 l4.3 3.5 0.1 107.3 0 107.2 -59.7 0 -59.8 0.1 -4.9 8.1 c-3.4 5.5 -4.6 8.5 -4 9.4 0.5 0.7 29.6 27 64.7 58.4 l63.7 57.1 0 178.5 0 178.5 -3.7 3.2 c-2 1.8 -38.8 34.4 -81.7 72.4 l-78.1 69.3 -188.6 0 -188.6 0 -68.9 -68.2z m511.6 -22.4 l74 -65.7 0 -167.2 0 -167.2 -64.7 -57.9 c-60.3 -54 -70.8 -63.2 -67.6 -59.4 0.7 0.8 30.4 27.6 66.2 59.5 l65 58 0 167 0 167 -73.7 65.2 -73.7 65.3 -179.1 0 -179.2 0 -75.8 -75.2 -75.9 -75.3 -0.5 -81.5 -0.5 -81.5 -0.3 81.5 -0.2 81.5 76.2 75.7 76.3 75.7 179.7 0 179.7 0.1 74.1 -65.6z m-397.7 23.6 l7.9 -13 146.2 0 146.3 0 57.2 -51.2 57.1 -51.1 0 -142.1 0 -142.1 -48.5 -42.5 c-26.7 -23.4 -49.1 -42.7 -49.8 -42.9 -1.6 -0.5 -5.1 -3.5 49.1 43.8 l48.2 42.3 -0.1 141.6 -0.1 141.7 -56.6 50.7 -56.7 50.7 -145.9 0.1 -145.8 0 1.4 -2.2 c0.8 -1.3 24.1 -39.3 51.8 -84.5 l50.3 -82.3 56.4 0 56.3 0 0 -76 0 -76 -9.5 0 c-5.2 0 -9.5 -0.3 -9.5 -0.7 0.1 -0.5 3.6 -6.4 7.9 -13.3 l7.8 -12.5 16.1 -0.3 16.2 -0.2 0.3 104.2 0.2 104.3 0.3 -104.7 0.2 -104.8 -16.1 0 c-8.8 0 -15.9 -0.4 -15.7 -0.9 0.2 -0.4 20.7 -34.2 45.7 -75 l45.5 -74.1 6.7 0 6.7 0 57.1 51.1 57.1 51.1 0 154.2 0 154.2 -64.5 57.3 c-35.5 31.5 -64.5 57.5 -64.5 57.8 0 1 5.7 -4 67.9 -59.2 l62 -55 0 -155 0 -155 -57 -51 -57 -51 -7.3 -0.3 c-5 -0.2 -7.6 0.1 -8.3 1 -1.4 1.6 -109.3 177.8 -109.3 178.4 0 0.2 4.5 0.4 10 0.4 l10 0 0 75 0 75 -56.2 0 -56.3 0 -3.1 5.3 c-1.7 2.8 -23.9 39.2 -49.4 80.7 -64.4 105 -68 111 -67.2 111 0.4 -0.1 4.2 -5.9 8.5 -13z m11.6 -118.2 c23.9 -67.8 43.6 -123.9 43.8 -124.5 0.4 -1 -21.4 -1.3 -107.1 -1.3 l-107.6 0 0 61.4 0 61.4 63.3 63.1 c34.7 34.7 63.4 63.1 63.7 63.1 0.3 0 20.1 -55.5 43.9 -123.2z m147.1 -140.9 l27.8 -45.4 4.6 -0.3 4.6 -0.3 0.3 46.8 0.2 46.8 0.3 -47.2 0.2 -47.3 -5.3 0 -5.2 0 -26.5 43.2 c-30.1 49 -31.7 51.7 -30.1 50.2 0.7 -0.6 13.8 -21.6 29.1 -46.5z m-87.2 -28.9 c2.7 -8 5.3 -15.3 5.7 -16.2 0.7 -1.7 -2.4 -1.8 -55.6 -1.8 l-56.4 -0.1 -76.2 -68.2 -76.2 -68.2 0 -162.2 -0.1 -162.2 65.8 -59.9 c36.2 -32.9 70.8 -64.4 77 -70 l11.2 -10.2 211 0 c116 0 211 0.2 211 0.5 0 0.2 -5 10.9 -11.1 23.6 -6 12.8 -10.7 23.5 -10.2 23.9 0.4 0.4 23.9 20.6 52.1 45 l51.2 44.2 0 87.9 0 87.9 -54.2 0 -54.3 0.1 -13.8 22.7 c-7.5 12.5 -14.7 24.3 -15.9 26.1 -1.3 1.9 -1.7 3.2 -1.1 2.8 0.7 -0.4 8 -12 16.4 -25.7 l15.2 -25 54.4 0 54.3 0 0 -88.7 0 -88.8 -51.9 -44.8 -51.9 -44.8 7.8 -16.2 c4.3 -8.9 9.4 -19.6 11.4 -23.7 l3.6 -7.5 -212.1 -0.3 -212.1 -0.2 -3.8 3.2 c-2 1.8 -36.9 33.4 -77.4 70.3 l-73.6 67 0 162.6 0 162.6 74.2 66.5 c40.9 36.6 75.2 67.5 76.2 68.7 1.9 2.1 2.2 2.1 58.3 2.1 34.8 0 56.2 0.4 55.8 0.9 -1.2 2 -11.6 32.6 -10.7 31.6 0.5 -0.5 3.2 -7.5 6 -15.5z m17 -48.7 c4.7 -13 50.2 -142.5 50.2 -142.8 0 -0.3 -29.4 -0.6 -65.3 -0.7 l-65.3 -0.3 30.2 -77 30.3 -77 0 -23.2 0.1 -23.2 9.1 -0.3 9.1 -0.3 38.4 -98 c21.1 -53.9 38.4 -98.3 38.4 -98.7 0 -0.5 -42.1 -0.8 -93.5 -0.8 l-93.4 0 -68 61.8 -67.9 61.7 -0.1 150.5 0 150.5 67.2 60.2 67.2 60.3 56.2 0 56.1 0 1 -2.7z m354.2 -352.7 l0 -68.4 -44.2 -38.2 -44.3 -38.2 -5.6 11.9 c-3.1 6.5 -25.2 52.6 -49.3 102.5 -35.2 73.3 -43.6 91.5 -43.6 94.8 l0 4 93.5 0 93.5 0 0 -68.4z"/>
  <path d="M117.8 873.8 l-62.8 -62 0 -60.9 0 -60.9 106.4 0 106.4 0 -4.3 12.3 c-2.4 6.7 -7 19.9 -10.4 29.2 l-6 17 0 -15.2 -0.1 -15.3 -82.5 0 -82.5 0 0 41.4 0 41.4 50.8 49.8 c27.9 27.5 52.5 51.5 54.7 53.4 9.4 8.3 -3.6 -4.7 -52.7 -52.8 l-51.8 -50.6 0 -40.8 0 -40.8 81.5 0 81.5 0 0 16.4 0 16.5 -32.1 91.3 c-17.7 50.2 -32.4 91.6 -32.8 92 -0.3 0.4 -28.8 -27.2 -63.3 -61.4z"/>
  <path d="M122.1 537.9 l-67.1 -60.1 0 -149.7 0 -149.7 67.8 -61.7 67.7 -61.7 92.8 0 c51 0 92.7 0.1 92.7 0.3 0 0.2 -2.2 5.7 -4.8 12.3 l-4.8 11.9 -83.1 0.5 -83.1 0.5 -59.1 54.5 -59.1 54.4 0 138.6 0 138.6 59.5 52.2 59.5 52.2 54.4 0 54.3 0 -4.7 13.3 -4.7 13.2 -55.6 0.3 -55.6 0.2 -67 -60.1z"/>
  <path d="M253.1 294.3 l-0.1 -74.3 29 0 c16 0 29 0.3 29 0.8 -0.1 0.4 -2.7 7.2 -5.8 15.2 l-5.7 14.5 -9.3 0.3 -9.2 0.3 0 23.2 0 23.3 -13.4 34.3 c-7.4 18.8 -13.7 34.8 -14 35.4 -0.2 0.7 -0.5 -32.2 -0.5 -73z"/>
  <path d="M470 307.7 c0 -2.3 4.8 -13.4 14.8 -34.1 l14.7 -30.7 0.3 19.5 0.2 19.6 64 0 64 0 0 -46.9 0 -46.9 -35.5 -30.7 c-19.5 -16.8 -35.7 -31 -36 -31.5 -0.6 -1 10.7 -25 11.7 -24.7 0.4 0.1 20.1 16.9 43.7 37.2 l43 37 0.1 67.8 0 67.7 -92.5 0 -92.5 0 0 -3.3z"/>
 </g>
 <g fill="#fdba31">
  <path d="M102.2 898.8 l-76 -75.3 -0.1 -81.2 -0.1 -81.3 126.6 -0.2 126.6 -0.3 5.9 -16.5 c3.2 -9.1 5.9 -16.6 5.9 -16.7 0 -0.2 -25.3 -0.3 -56.2 -0.3 l-56.3 -0.1 -76.2 -68.2 -76.2 -68.2 0 -162.2 -0.1 -162.2 65.8 -59.9 c36.2 -32.9 70.8 -64.4 77 -70 l11.2 -10.2 211 0 c116 0 211 0.2 211 0.5 0 0.2 -5 10.9 -11.1 23.6 -6 12.8 -10.7 23.5 -10.2 23.9 0.4 0.4 23.9 20.6 52.1 45 l51.2 44.2 0 87.9 0 87.9 -54.2 0 -54.3 0.1 -15.6 25.7 -15.7 25.7 3.8 0.5 c3.3 0.4 11.8 7.6 69.8 59.5 l66.1 59 0 167 0 167 -73.7 65.2 -73.7 65.3 -179.1 0 -179.2 0 -76 -75.2z m489.1 -10 l64.6 -57.3 0 -155 0 -155 -57 -51 -57 -51 -7.3 -0.3 c-5 -0.2 -7.6 0.1 -8.3 1 -1.4 1.6 -109.3 177.8 -109.3 178.4 0 0.2 4.5 0.4 10 0.4 l10 0 0 75 0 75 -56.2 0 -56.3 0 -3.1 5.3 c-1.7 2.8 -23.9 39.2 -49.4 80.7 -25.5 41.5 -51.2 83.5 -57.1 93.3 l-10.8 17.7 161.3 0 161.3 0 64.6 -57.2z m-366.4 -74 c23.9 -67.8 43.6 -123.9 43.8 -124.5 0.4 -1 -21.4 -1.3 -107.1 -1.3 l-107.6 0 0 61.4 0 61.4 63.3 63.1 c34.7 34.7 63.4 63.1 63.7 63.1 0.3 0 20.1 -55.5 43.9 -123.2z m185.1 -140.8 l0 -47 -5.3 0 -5.2 0 -26.5 43.2 c-14.6 23.7 -27.5 44.8 -28.8 47 l-2.3 3.8 34 0 34.1 0 0 -47z m-108.2 -77.7 c4.7 -13 50.2 -142.5 50.2 -142.8 0 -0.3 -29.4 -0.6 -65.3 -0.7 l-65.3 -0.3 30.2 -77 30.3 -77 0 -23.2 0.1 -23.2 9.1 -0.3 9.1 -0.3 38.4 -98 c21.1 -53.9 38.4 -98.3 38.4 -98.7 0 -0.5 -42.1 -0.8 -93.5 -0.8 l-93.4 0 -68 61.8 -67.9 61.7 -0.1 150.5 0 150.5 67.2 60.2 67.2 60.3 56.2 0 56.1 0 1 -2.7z m354.2 -352.7 l0 -68.4 -44.2 -38.2 -44.3 -38.2 -5.6 11.9 c-3.1 6.5 -25.2 52.6 -49.3 102.5 -35.2 73.3 -43.6 91.5 -43.6 94.8 l0 4 93.5 0 93.5 0 0 -68.4z"/>
 </g>
 <g fill="#00204e">
  <path d="M223.2 916.8 c0.8 -1.3 20.1 -32.8 42.9 -70 l41.4 -67.8 80.3 0 80.2 0 0 -104.5 0 -104.5 -16.1 0 c-8.8 0 -15.9 -0.4 -15.7 -0.9 0.2 -0.4 16.9 -27.9 37.2 -61 l36.8 -60.1 9.3 0 9.2 0 49.2 43.1 49.1 43.1 -0.1 141.6 -0.1 141.7 -56.6 50.7 -56.7 50.7 -145.9 0.1 -145.8 0 1.4 -2.2z"/>
  <path d="M137.3 853.7 l-54.3 -53.2 0 -40.7 0 -40.8 81.5 0 81.5 0 0 16.4 0 16.5 -26.9 76.3 c-14.7 42 -27 76.8 -27.2 77.4 -0.2 0.7 -24.8 -22.7 -54.6 -51.9z"/>
  <path d="M142.5 518.2 l-59 -51.8 0 -138.4 0 -138.4 58.9 -54.3 58.8 -54.3 82.4 0 82.4 0 -2.1 5.2 c-3.3 8.3 -45.7 116.4 -49 125 l-3 7.8 -29.7 0.2 -29.7 0.3 -0.5 77 -0.5 77 -15.3 38.9 c-8.5 21.4 -15.6 39.5 -15.9 40.2 -0.4 1.2 10.6 1.4 65 1.6 l65.5 0.3 -20.3 57.5 -20.3 57.5 -54.3 0.3 -54.4 0.2 -59 -51.8z"/>
  <path d="M501 260.4 l0 -20.6 27.1 -56.4 27.2 -56.4 3.3 2.8 c1.8 1.5 18 15.3 35.8 30.7 l32.5 28 0.1 46.3 0 46.2 -63 0 -63 0 0 -20.6z"/>
 </g>
</svg>