<?xml version="1.0" encoding="UTF-8" standalone="no"?>
<svg
   xmlns:dc="http://purl.org/dc/elements/1.1/"
   xmlns:cc="http://creativecommons.org/ns#"
   xmlns:rdf="http://www.w3.org/1999/02/22-rdf-syntax-ns#"
   xmlns:svg="http://www.w3.org/2000/svg"
   xmlns="http://www.w3.org/2000/svg"
   xmlns:xlink="http://www.w3.org/1999/xlink"
   xmlns:sodipodi="http://sodipodi.sourceforge.net/DTD/sodipodi-0.dtd"
   xmlns:inkscape="http://www.inkscape.org/namespaces/inkscape"
   version="1.1"
   viewBox="0 0 948.99915 249.64349"
   stroke-miterlimit="10"
   id="svg26"
   sodipodi:docname="Titan Distance Graduation Logo.svg"
   width="948.99915"
   height="249.64349"
   style="fill:none;stroke:none;stroke-linecap:square;stroke-miterlimit:10"
   inkscape:version="0.92.4 (5da689c313, 2019-01-14)"
   inkscape:export-filename="D:\Google Drive\Titan Distance\Logos\Titan Distance Logo (Graduation).png"
   inkscape:export-xdpi="309.44125"
   inkscape:export-ydpi="309.44125">
  <metadata
     id="metadata32">
    <rdf:RDF>
      <cc:Work
         rdf:about="">
        <dc:format>image/svg+xml</dc:format>
        <dc:type
           rdf:resource="http://purl.org/dc/dcmitype/StillImage" />
        <dc:title></dc:title>
      </cc:Work>
    </rdf:RDF>
  </metadata>
  <defs
     id="defs30">
    <linearGradient
       id="a">
      <stop
         id="stop819"
         offset="0"
         stop-color="#e2eb3d" />
      <stop
         id="stop821"
         offset="1"
         stop-color="#acb32e" />
    </linearGradient>
    <linearGradient
       id="b">
      <stop
         id="stop824"
         offset="0"
         stop-color="#060087" />
      <stop
         id="stop826"
         offset="1"
         stop-color="#01001a" />
    </linearGradient>
    <linearGradient
       xlink:href="#b"
       gradientUnits="userSpaceOnUse"
       gradientTransform="matrix(1.5184,0,0,0.84749,-114.64,-96.404)"
       y2="543.59003"
       y1="738.91998"
       x2="274.98001"
       x1="183.27"
       id="f" />
    <linearGradient
       xlink:href="#a"
       gradientUnits="userSpaceOnUse"
       gradientTransform="matrix(1.0147,0,0,1.2682,-114.64,-96.404)"
       y2="369.39999"
       y1="325.87"
       x2="575.33002"
       x1="594.09003"
       id="e" />
    <linearGradient
       xlink:href="#a"
       gradientUnits="userSpaceOnUse"
       gradientTransform="matrix(1.2851,0,0,1.0013,-114.64,-96.404)"
       y2="632.65002"
       y1="596.34998"
       x2="505.73999"
       x1="496.25"
       id="d" />
    <radialGradient
       xlink:href="#b"
       gradientUnits="userSpaceOnUse"
       gradientTransform="matrix(2.3031,0,0,0.55873,-114.64,-96.404)"
       r="153.00999"
       cy="742.65997"
       cx="136.19"
       id="c" />
  </defs>
  <sodipodi:namedview
     pagecolor="#ffffff"
     bordercolor="#666666"
     borderopacity="1"
     objecttolerance="10"
     gridtolerance="10"
     guidetolerance="10"
     inkscape:pageopacity="0"
     inkscape:pageshadow="2"
     inkscape:window-width="640"
     inkscape:window-height="480"
     id="namedview28"
     showgrid="false"
     inkscape:zoom="1.1829307"
     inkscape:cx="545.72326"
     inkscape:cy="54.338052"
     inkscape:current-layer="svg26" />
  <clipPath
     id="p.0">
    <path
       d="M 0,0 H 960 V 720 H 0 Z"
       id="path2"
       inkscape:connector-curvature="0"
       style="clip-rule:nonzero" />
  </clipPath>
  <path
     style="fill:#073763;fill-rule:nonzero"
     inkscape:connector-curvature="0"
     id="path9"
     d="m 3.578125,60.00464 16.265625,0.89062 h 18.5625 l 16.25,-0.89062 0.640625,-3.70313 h 2.437504 l 0.5,18.17188 H 55.8125 l -1.15625,-5 -19.203125,-0.64063 -1.15625,17.03125 V 112.739 l 1.546875,21.89063 5.75,0.89062 -0.125,2.4375 H 17.015625 l -0.125,-2.4375 5.765625,-0.89062 L 24.1875,112.614 V 85.73901 l -1.28125,-16.90625 -19.328125,0.64063 -1.140625,5 H 0 L 0.515625,56.30151 H 2.9375 Z M 70.395005,134.62963 71.94188,112.614 V 85.73901 l -1.546875,-21.89062 -3.828125,-0.90625 0.125,-2.42188 h 20.609375 l 0.125,2.42188 -3.84375,0.90625 -1.53125,22.01562 V 112.739 l 1.53125,21.89063 3.84375,0.89062 -0.125,2.4375 H 66.69188 l -0.125,-2.4375 z m 28.927121,-74.62499 16.265634,0.89062 h 18.5625 l 16.25,-0.89062 0.64062,-3.70313 h 2.4375 l 0.5,18.17188 h -2.42187 l -1.15625,-5 -19.20313,-0.64063 -1.15625,17.03125 V 112.739 l 1.54688,21.89063 5.75,0.89062 -0.125,2.4375 h -24.45313 l -0.125,-2.4375 5.76563,-0.89062 1.53125,-22.01563 V 85.73901 l -1.28125,-16.90625 -19.328134,0.64063 -1.14062,5 h -2.4375 l 0.51562,-18.17188 h 2.42188 z m 108.160634,58.62499 -2.42187,-6.78125 h -29.1875 l -2.5625,6.78125 -3.84375,16 5.51562,0.64062 -0.14062,2.6875 h -21.375 l -0.125,-2.4375 3.84375,-0.89062 28.92187,-70.78124 -4.85937,-0.90625 0.125,-2.42188 h 21 l 0.125,2.42188 -4.85938,0.90625 26.75,70.78124 3.82813,0.89062 -0.125,2.4375 h -22.78125 l -0.125,-2.6875 5.5,-0.64062 z m -16.375,-45.56249 -11.90625,30.20311 h 22.78125 z m 47.35126,61.56249 1.54687,-22.01563 V 85.73901 l -1.67187,-21.89062 -3.70313,-0.90625 0.125,-2.42188 h 21.25 l 0.125,2.6875 -5.64062,0.64063 h -0.125 l 40.32812,55.42186 V 85.73901 l -1.67187,-21.89062 -5.125,-0.64063 0.14062,-2.6875 h 21.10938 l 0.14062,2.42188 -3.84375,0.90625 -1.54687,22.01562 v 23.42187 l 1.54687,25.34375 3.84375,0.89062 -0.14062,2.4375 h -20.73438 l -0.125,-2.6875 5.76563,-0.64062 -40.84375,-55.93749 V 112.739 l 1.54687,21.89063 5.10938,0.64062 -0.125,2.6875 h -20.98438 l -0.125,-2.4375 z" />
  <path
     style="fill:#073763;fill-rule:nonzero"
     inkscape:connector-curvature="0"
     id="path22"
     d="M 426.87501,134.50463 428.42188,112.614 V 85.86401 l -1.54687,-21.89062 -3.82813,-0.89063 0.125,-2.4375 q 15.60938,-0.51562 30.07813,-0.51562 19.0625,0 28.28125,9.09375 9.21875,9.09375 9.21875,28.796865 0,40.328125 -38.90625,40.328125 l -28.67188,-0.51563 -0.125,-2.4375 z m 11.65625,-21.76563 1.01562,15.35938 q 6.40625,2.04687 14.46875,2.04687 25.09375,0 25.09375,-30.07812 0,-16.37499 -6.65625,-24.31249 -6.65625,-7.9375 -20.48437,-7.9375 -6.01563,0 -12.29688,2.04687 l -1.14062,16.125 z m 70.13577,21.89063 1.54687,-22.01563 V 85.73901 l -1.54687,-21.89062 -3.82813,-0.90625 0.125,-2.42188 h 20.60938 l 0.125,2.42188 -3.84375,0.90625 -1.53125,22.01562 V 112.739 l 1.53125,21.89063 3.84375,0.89062 -0.125,2.4375 H 504.9639 l -0.125,-2.4375 z m 39.05212,-14.84375 -0.64062,5.89062 q 9.98437,5.75 17.78125,5.75 7.8125,0 12.28125,-3.1875 4.48437,-3.20312 4.48437,-8.39062 0,-5.1875 -2.9375,-8.82813 -2.9375,-3.65625 -7.42187,-5.57812 -4.48438,-1.92188 -9.67188,-4.28125 -5.17187,-2.374995 -9.65625,-4.609375 -4.48437,-2.23437 -7.4375,-6.59375 -2.9375,-4.359365 -2.9375,-10.374995 0,-9.34375 7.75,-15.15625 7.75,-5.82812 20.03125,-5.82812 7.54688,0 15.48438,2.4375 l 0.90625,-3.32813 h 2.42187 l -1.01562,21.625 h -2.4375 l -0.89063,-5.5 q -10.89062,-7.17187 -19.07812,-7.17187 -5.625,0 -8.70313,2.5 -3.07812,2.5 -3.07812,7.5 0,4.98437 3.96875,8.5625 3.96875,3.578115 9.65625,5.765615 5.70312,2.17188 11.39062,4.67188 5.70313,2.48437 9.67188,7.421865 3.96875,4.92188 3.96875,12.34375 0,11.26563 -8.32813,17.85938 -8.3125,6.59375 -22.26562,6.59375 -8.1875,0 -18.42188,-2.95313 l -1.79687,2.82813 -2.29688,-0.76563 6.90625,-19.84375 z m 53.875,-59.78124 16.26563,0.89062 h 18.5625 l 16.25,-0.89062 0.64062,-3.70313 h 2.4375 l 0.5,18.17188 h -2.42187 l -1.15625,-5 -19.20313,-0.64063 -1.15625,17.03125 V 112.739 l 1.54688,21.89063 5.75,0.89062 -0.125,2.4375 h -24.45313 l -0.125,-2.4375 5.76563,-0.89062 1.53125,-22.01563 V 85.73901 l -1.28125,-16.90625 -19.32813,0.64063 -1.14062,5 h -2.4375 l 0.51562,-18.17188 h 2.42188 z m 108.16058,58.62499 -2.42187,-6.78125 h -29.1875 l -2.5625,6.78125 -3.84375,16 5.51562,0.64062 -0.14062,2.6875 h -21.37494 l -0.125,-2.4375 3.84375,-0.89062 28.92181,-70.78124 -4.85937,-0.90625 0.125,-2.42188 h 21 l 0.125,2.42188 -4.85938,0.90625 26.75,70.78124 3.82813,0.89062 -0.125,2.4375 h -22.78125 l -0.125,-2.6875 5.5,-0.64062 z m -16.375,-45.56249 -11.90625,30.20311 h 22.78125 z m 47.35126,61.56249 1.54688,-22.01563 V 85.73901 l -1.67188,-21.89062 -3.70312,-0.90625 0.125,-2.42188 h 21.25 l 0.125,2.6875 -5.64063,0.64063 h -0.125 l 40.32813,55.42186 V 85.73901 l -1.67188,-21.89062 -5.125,-0.64063 0.14063,-2.6875 h 21.10937 l 0.14063,2.42188 -3.84375,0.90625 -1.54688,22.01562 v 23.42187 l 1.54688,25.34375 3.84375,0.89062 -0.14063,2.4375 h -20.73437 l -0.125,-2.6875 5.76562,-0.64062 -40.84375,-55.93749 V 112.739 l 1.54688,21.89063 5.10937,0.64062 -0.125,2.6875 h -20.98437 l -0.125,-2.4375 z M 855.68454,67.05151 q -10.5,0 -16.14062,8.25 -5.625,8.25 -5.625,23.546875 0,15.296865 5.95312,23.937495 5.95313,8.64062 16.125,8.64062 10.17188,0 21.70313,-6.65625 l 2.17187,-5.10937 2.29688,0.5 -4.46875,20.35937 h -2.5625 l 0.125,-3.20312 q -8.57813,2.5625 -19.20313,2.5625 -16.25,0 -25.34375,-10.35938 -9.07812,-10.375 -9.07812,-29.375 0,-19.01561 9.84375,-30.28124 9.85937,-11.26562 26.76562,-11.26562 8.4375,0 17.90625,3.20312 l 0.90625,-3.20312 h 2.42188 l -0.89063,19.71875 h -2.4375 l -0.89062,-5.39063 q -11.26563,-5.875 -19.57813,-5.875 z m 87.92395,3.45313 -13.6875,-1.28125 h -18.95306 l -1.14063,16.64062 v 5.890625 h 24.57807 l 1.01562,-3.71875 h 2.4375 l -0.76562,17.531245 h -2.4375 l -0.64063,-5.10938 H 909.8273 V 112.739 l 1.14063,16.51563 h 18.95306 l 14.71875,-1.40625 2.17188,-5.125 2.1875,0.51562 -3.96875,18.17188 -2.3125,-0.125 0.125,-3.32813 h -48.37494 l -0.125,-2.4375 3.82812,-0.89062 1.54688,-22.01563 V 85.73901 l -1.54688,-21.89062 -3.82812,-0.90625 0.125,-2.42188 h 49.53119 l 1.03125,-3.71875 h 2.42187 l -0.76562,18.8125 h -2.4375 z" />
  <path
     style="fill:#feb120;fill-opacity:1;stroke:none;stroke-width:1px;stroke-linecap:butt;stroke-linejoin:miter;stroke-opacity:1"
     d="m 394.22167,24.568419 -84.88169,84.881691 53.49937,1.19551 -46.32627,69.0411 101.32005,-92.652545 -54.6949,-0.597761 z"
     id="path822"
     inkscape:connector-curvature="0" />
  <g
     id="g845"
     transform="matrix(0.18253609,0.10597268,-0.10597268,0.18253609,357.6048,-59.804315)"
     style="fill-rule:evenodd;stroke-linecap:round;stroke-linejoin:round">
    <path
       id="path835"
       d="m 86.222,553.58 c 176.37,-4.3547 248.04,-85.904 393.56,-76.752 27.585,1.7349 123.32,47.194 119.21,26.128 -39.294,-201.45 -136.08,-205.22 -192.7,-212.29 -95.259,89.272 -285.23,-46.813 -320.07,262.92 z"
       inkscape:connector-curvature="0"
       style="fill:url(#f);stroke:#000000;stroke-width:4.25390005" />
    <path
       id="path837"
       d="m 4.5707,327.44 406.62,72.723 293.94,-99.328 -354.37,-67.401 -346.2,94.007 z"
       inkscape:connector-curvature="0"
       style="fill:url(#c);stroke:#000000;stroke-width:4.25390005" />
    <path
       id="path839"
       d="m 350.71,309.86 c 57.351,20.208 153.59,39.917 163.97,50.23 14.069,13.982 14.819,79.291 5.7736,174.36 l -25.474,68.019 c 24.01,25.166 59.859,18.488 74.479,-2.8868 l -22.447,-64.555 c 10.585,-57.736 8.474,-168.32 -2.8868,-183.6 -18.456,-24.815 -116.24,-40.03 -174.36,-60.045 -9.0453,2.6943 -10.008,15.781 -19.053,18.476 z"
       inkscape:connector-curvature="0"
       style="fill:url(#e);stroke:#f9ae08;stroke-width:4.25390005" />
    <path
       id="path841"
       d="m 327.09,289.94 c 14.928,-26.004 53.64,-16.847 61.163,-6.0198 10.204,14.685 -18.976,1.2036 -35.968,24.309 -11.619,15.799 -34.111,-2.7588 -25.195,-18.289 z"
       inkscape:connector-curvature="0"
       style="fill:#e2eb3d;stroke:#f9ae08;stroke-width:2.83599997" />
    <path
       id="path843"
       d="m 517.34,500.51 c -13.608,7.6207 -14.153,24.631 -5.7156,35.11 l 44.5,3.6743 c 12.384,-7.0764 12.112,-28.033 2.8578,-34.702 l -41.642,-4.0825 z"
       inkscape:connector-curvature="0"
       style="fill:url(#d);stroke:#f9ae08;stroke-width:2.83599997" />
  </g>
  <text
     xml:space="preserve"
     style="font-style:normal;font-variant:normal;font-weight:normal;font-stretch:normal;font-size:101.27050018px;line-height:1.25;font-family:Balthazar;-inkscape-font-specification:Balthazar;letter-spacing:0px;word-spacing:0px;fill:#073763;fill-opacity:1;stroke:none;stroke-width:0.5274505;"
     x="171.77594"
     y="248.01169"
     id="text871"><tspan
       sodipodi:role="line"
       id="tspan869"
       x="171.77594"
       y="248.01169"
       style="font-style:normal;font-variant:normal;font-weight:normal;font-stretch:normal;font-family:Georgia;-inkscape-font-specification:Georgia;stroke-width:0.5274505;fill:#073763;fill-opacity:1;">Class of 2020</tspan></text>
</svg>
