<?xml version="1.0" encoding="UTF-8" standalone="no"?>
<svg
   version="1.1"
   viewBox="0 0 948.99915 160"
   stroke-miterlimit="10"
   id="svg26"
   sodipodi:docname="october.svg"
   width="948.99915"
   height="160"
   style="fill:none;stroke:none;stroke-linecap:square;stroke-miterlimit:10"
   inkscape:version="1.1 (c68e22c387, 2021-05-23)"
   inkscape:export-filename="D:\Google Drive\Titan Distance\Logos\New Logo\Titan Distance Logo.png"
   inkscape:export-xdpi="309.44125"
   inkscape:export-ydpi="309.44125"
   xmlns:inkscape="http://www.inkscape.org/namespaces/inkscape"
   xmlns:sodipodi="http://sodipodi.sourceforge.net/DTD/sodipodi-0.dtd"
   xmlns="http://www.w3.org/2000/svg"
   xmlns:svg="http://www.w3.org/2000/svg"
   xmlns:rdf="http://www.w3.org/1999/02/22-rdf-syntax-ns#"
   xmlns:cc="http://creativecommons.org/ns#"
   xmlns:dc="http://purl.org/dc/elements/1.1/">
  <metadata
     id="metadata32">
    <rdf:RDF>
      <cc:Work
         rdf:about="">
        <dc:format>image/svg+xml</dc:format>
        <dc:type
           rdf:resource="http://purl.org/dc/dcmitype/StillImage" />
      </cc:Work>
    </rdf:RDF>
  </metadata>
  <defs
     id="defs30">
    <style
       type="text/css"
       id="style11">  .fil0 {fill:#DD137B} .fil1 {fill:url(#id0)} .fil2 {fill:url(#id1)}  </style>
    <linearGradient
       id="id0"
       gradientUnits="userSpaceOnUse"
       x1="168.2"
       y1="197.048"
       x2="168.2"
       y2="15.0619">
      <stop
         offset="0"
         style="stop-color:#DD137B"
         id="stop13" />
      <stop
         offset="0.819608"
         style="stop-color:#F19ABE"
         id="stop15" />
      <stop
         offset="0.988235"
         style="stop-color:#FBD8E7"
         id="stop17" />
      <stop
         offset="1"
         style="stop-color:white"
         id="stop19" />
    </linearGradient>
    <linearGradient
       id="id1"
       gradientUnits="userSpaceOnUse"
       x1="147.781"
       y1="10.1131"
       x2="100.569"
       y2="67.0101">
      <stop
         offset="0"
         style="stop-color:#DD137B"
         id="stop22" />
      <stop
         offset="1"
         style="stop-color:white"
         id="stop24" />
    </linearGradient>
  </defs>
  <sodipodi:namedview
     pagecolor="#ffffff"
     bordercolor="#666666"
     borderopacity="1"
     objecttolerance="10"
     gridtolerance="10"
     guidetolerance="10"
     inkscape:pageopacity="0"
     inkscape:pageshadow="2"
     inkscape:window-width="640"
     inkscape:window-height="480"
     id="namedview28"
     showgrid="false"
     inkscape:zoom="1.6729167"
     inkscape:cx="118.05729"
     inkscape:cy="104.60772"
     inkscape:current-layer="svg26"
     inkscape:pagecheckerboard="0" />
  <clipPath
     id="p.0">
    <path
       d="M 0,0 H 960 V 720 H 0 Z"
       id="path2"
       inkscape:connector-curvature="0"
       style="clip-rule:nonzero" />
  </clipPath>
  <path
     style="fill:#ffffff;fill-rule:nonzero;fill-opacity:1"
     inkscape:connector-curvature="0"
     id="path9"
     d="M 3.578125,37.92688 19.84375,38.8175 h 18.5625 l 16.25,-0.89062 0.640625,-3.70313 h 2.437504 l 0.5,18.17188 H 55.8125 l -1.15625,-5 -19.203125,-0.64063 -1.15625,17.03125 v 26.875 l 1.546875,21.89063 5.75,0.89062 -0.125,2.4375 H 17.015625 l -0.125,-2.4375 5.765625,-0.89062 1.53125,-22.01563 v -26.875 L 22.90625,46.755 3.578125,47.39563 l -1.140625,5 H 0 L 0.515625,34.22375 H 2.9375 Z m 66.81688,74.625 1.546875,-22.01563 v -26.875 l -1.546875,-21.89062 -3.828125,-0.90625 0.125,-2.42188 h 20.609375 l 0.125,2.42188 -3.84375,0.90625 -1.53125,22.01562 v 26.875 l 1.53125,21.89063 3.84375,0.89062 -0.125,2.4375 H 66.69188 l -0.125,-2.4375 z m 28.927121,-74.625 16.265634,0.89062 h 18.5625 l 16.25,-0.89062 0.64062,-3.70313 h 2.4375 l 0.5,18.17188 h -2.42187 l -1.15625,-5 -19.20313,-0.64063 -1.15625,17.03125 v 26.875 l 1.54688,21.89063 5.75,0.89062 -0.125,2.4375 h -24.45313 l -0.125,-2.4375 5.76563,-0.89062 1.53125,-22.01563 v -26.875 l -1.28125,-16.90625 -19.328134,0.64063 -1.14062,5 h -2.4375 l 0.51562,-18.17188 h 2.42188 z m 108.160634,58.625 -2.42187,-6.78125 h -29.1875 l -2.5625,6.78125 -3.84375,16 5.51562,0.64062 -0.14062,2.6875 h -21.375 l -0.125,-2.4375 3.84375,-0.89062 28.92187,-70.78125 -4.85937,-0.90625 0.125,-2.42188 h 21 l 0.125,2.42188 -4.85938,0.90625 26.75,70.78125 3.82813,0.89062 -0.125,2.4375 h -22.78125 l -0.125,-2.6875 5.5,-0.64062 z m -16.375,-45.5625 -11.90625,30.20312 h 22.78125 z m 47.35126,61.5625 1.54687,-22.01563 v -26.875 l -1.67187,-21.89062 -3.70313,-0.90625 0.125,-2.42188 h 21.25 l 0.125,2.6875 -5.64062,0.64063 h -0.125 L 290.69339,97.1925 V 63.66125 l -1.67187,-21.89062 -5.125,-0.64063 0.14062,-2.6875 h 21.10938 l 0.14062,2.42188 -3.84375,0.90625 -1.54687,22.01562 v 23.42188 l 1.54687,25.34375 3.84375,0.89062 -0.14062,2.4375 h -20.73438 l -0.125,-2.6875 5.76563,-0.64062 -40.84375,-55.9375 v 34.04687 l 1.54687,21.89063 5.10938,0.64062 -0.125,2.6875 h -20.98438 l -0.125,-2.4375 z" />
  <path
     style="fill:#ffffff;fill-rule:nonzero;fill-opacity:1"
     inkscape:connector-curvature="0"
     id="path22"
     d="m 426.87501,112.42688 1.54687,-21.89063 v -26.75 l -1.54687,-21.89062 -3.82813,-0.89063 0.125,-2.4375 q 15.60938,-0.51562 30.07813,-0.51562 19.0625,0 28.28125,9.09375 9.21875,9.09375 9.21875,28.79687 0,40.32813 -38.90625,40.32813 l -28.67188,-0.51563 -0.125,-2.4375 z m 11.65625,-21.76563 1.01562,15.35938 q 6.40625,2.04687 14.46875,2.04687 25.09375,0 25.09375,-30.07812 0,-16.375 -6.65625,-24.3125 -6.65625,-7.9375 -20.48437,-7.9375 -6.01563,0 -12.29688,2.04687 l -1.14062,16.125 z m 70.13577,21.89063 1.54687,-22.01563 v -26.875 l -1.54687,-21.89062 -3.82813,-0.90625 0.125,-2.42188 h 20.60938 l 0.125,2.42188 -3.84375,0.90625 -1.53125,22.01562 v 26.875 l 1.53125,21.89063 3.84375,0.89062 -0.125,2.4375 H 504.9639 l -0.125,-2.4375 z m 39.05212,-14.84375 -0.64062,5.89062 q 9.98437,5.75 17.78125,5.75 7.8125,0 12.28125,-3.1875 4.48437,-3.20312 4.48437,-8.39062 0,-5.1875 -2.9375,-8.82813 -2.9375,-3.65625 -7.42187,-5.57812 -4.48438,-1.92188 -9.67188,-4.28125 -5.17187,-2.375 -9.65625,-4.60938 -4.48437,-2.23437 -7.4375,-6.59375 -2.9375,-4.35937 -2.9375,-10.375 0,-9.34375 7.75,-15.15625 7.75,-5.82812 20.03125,-5.82812 7.54688,0 15.48438,2.4375 L 585.73478,35.63 h 2.42187 l -1.01562,21.625 h -2.4375 l -0.89063,-5.5 q -10.89062,-7.17187 -19.07812,-7.17187 -5.625,0 -8.70313,2.5 -3.07812,2.5 -3.07812,7.5 0,4.98437 3.96875,8.5625 3.96875,3.57812 9.65625,5.76562 5.70312,2.17188 11.39062,4.67188 5.70313,2.48437 9.67188,7.42187 3.96875,4.92188 3.96875,12.34375 0,11.26563 -8.32813,17.85938 -8.3125,6.59375 -22.26562,6.59375 -8.1875,0 -18.42188,-2.95313 l -1.79687,2.82813 -2.29688,-0.76563 6.90625,-19.84375 z m 53.875,-59.78125 16.26563,0.89062 h 18.5625 l 16.25,-0.89062 0.64062,-3.70313 h 2.4375 l 0.5,18.17188 h -2.42187 l -1.15625,-5 -19.20313,-0.64063 -1.15625,17.03125 v 26.875 l 1.54688,21.89063 5.75,0.89062 -0.125,2.4375 h -24.45313 l -0.125,-2.4375 5.76563,-0.89062 1.53125,-22.01563 v -26.875 l -1.28125,-16.90625 -19.32813,0.64063 -1.14062,5 h -2.4375 l 0.51562,-18.17188 h 2.42188 z m 108.16058,58.625 -2.42187,-6.78125 h -29.1875 l -2.5625,6.78125 -3.84375,16 5.51562,0.64062 -0.14062,2.6875 h -21.37494 l -0.125,-2.4375 3.84375,-0.89062 28.92181,-70.78125 -4.85937,-0.90625 0.125,-2.42188 h 21 l 0.125,2.42188 -4.85938,0.90625 26.75,70.78125 3.82813,0.89062 -0.125,2.4375 h -22.78125 l -0.125,-2.6875 5.5,-0.64062 z m -16.375,-45.5625 -11.90625,30.20312 h 22.78125 z m 47.35126,61.5625 1.54688,-22.01563 v -26.875 l -1.67188,-21.89062 -3.70312,-0.90625 0.125,-2.42188 h 21.25 l 0.125,2.6875 -5.64063,0.64063 h -0.125 L 792.96537,97.1925 V 63.66125 l -1.67188,-21.89062 -5.125,-0.64063 0.14063,-2.6875 h 21.10937 l 0.14063,2.42188 -3.84375,0.90625 -1.54688,22.01562 v 23.42188 l 1.54688,25.34375 3.84375,0.89062 -0.14063,2.4375 h -20.73437 l -0.125,-2.6875 5.76562,-0.64062 -40.84375,-55.9375 v 34.04687 l 1.54688,21.89063 5.10937,0.64062 -0.125,2.6875 h -20.98437 l -0.125,-2.4375 z M 855.68454,44.97375 q -10.5,0 -16.14062,8.25 -5.625,8.25 -5.625,23.54688 0,15.29687 5.95312,23.9375 5.95313,8.64062 16.125,8.64062 10.17188,0 21.70313,-6.65625 l 2.17187,-5.10937 2.29688,0.5 -4.46875,20.35937 h -2.5625 l 0.125,-3.20312 q -8.57813,2.5625 -19.20313,2.5625 -16.25,0 -25.34375,-10.35938 -9.07812,-10.375 -9.07812,-29.375 0,-19.01562 9.84375,-30.28125 9.85937,-11.26562 26.76562,-11.26562 8.4375,0 17.90625,3.20312 l 0.90625,-3.20312 h 2.42188 l -0.89063,19.71875 h -2.4375 l -0.89062,-5.39063 q -11.26563,-5.875 -19.57813,-5.875 z m 87.92395,3.45313 -13.6875,-1.28125 h -18.95306 l -1.14063,16.64062 v 5.89063 h 24.57807 l 1.01562,-3.71875 h 2.4375 l -0.76562,17.53125 h -2.4375 L 934.01474,78.38 H 909.8273 v 12.28125 l 1.14063,16.51563 h 18.95306 l 14.71875,-1.40625 2.17188,-5.125 2.1875,0.51562 -3.96875,18.17188 -2.3125,-0.125 0.125,-3.32813 h -48.37494 l -0.125,-2.4375 3.82812,-0.89062 1.54688,-22.01563 v -26.875 l -1.54688,-21.89062 -3.82812,-0.90625 0.125,-2.42188 h 49.53119 l 1.03125,-3.71875 h 2.42187 l -0.76562,18.8125 h -2.4375 z" />
  <g
     style="clip-rule:evenodd;fill-rule:evenodd;image-rendering:optimizeQuality;shape-rendering:geometricPrecision;text-rendering:geometricPrecision"
     id="g56"
     transform="matrix(0.58990415,0.40427915,-0.40427915,0.58990415,306.37119,-50.559023)">
    <g
       id="Capa_x0020_1"
       inkscape:label="Capa 1"
       inkscape:groupmode="layer">
      <metadata
         id="CorelCorpID_0Corel-Layer" />
      <g
         id="_292953720">
        <path
           id="_95997440"
           class="fil0"
           d="m 250.243,161.372 -4.4559,-36.7955 C 173.4645,94.8811 93.8461,63.2781 95.4911,45.79 c 5.6218,28.0166 14.2878,46.6582 25.9977,55.925 39.1662,26.8749 82.6272,45.429 128.754,59.657 z" />
        <path
           id="_95997560"
           class="fil1"
           d="m 194.111,198.905 -32.8183,-17.2256 c -2.0929,-78.1537 -3.3793,-163.805 -20.3128,-168.474 24.1973,15.1996 38.5494,29.9178 43.0566,44.1544 11.224,46.1548 13.1446,93.3717 10.0745,141.546 z"
           style="fill:url(#id0)" />
        <path
           id="_129066680"
           class="fil0"
           d="M 139.417,14.2079 C 117.4167,9.3135 97.1939,24.9633 95.6468,43.832 98.4419,54.5987 107.9549,60.048 111.8695,62.1733 119.6923,43.3019 133.3867,35.8288 151.098,36.155 148.3987,25.3313 145.5634,14.9429 139.417,14.2079 Z" />
        <path
           id="_129066992"
           class="fil2"
           d="M 140.22,15.032 C 118.2196,10.1375 97.9969,25.7874 96.4498,44.6561 99.2449,55.4228 108.758,60.872 112.6724,62.9975 120.4954,44.126 134.1897,36.653 151.901,36.979 149.2018,26.1553 146.3664,15.7671 140.22,15.032 Z"
           style="fill:url(#id1)" />
      </g>
    </g>
  </g>
</svg>
